<svg xmlns="http://www.w3.org/2000/svg" version="1.1" xmlns:xlink="http://www.w3.org/1999/xlink" xmlns:svgjs="http://svgjs.dev/svgjs" width="1000" height="1125" viewBox="0 0 1000 1125"><g transform="matrix(1,0,0,1,0.0013156250002452907,0)"><svg viewBox="0 0 320 360" data-background-color="#28353b" preserveAspectRatio="xMidYMid meet" height="1125" width="1000" xmlns="http://www.w3.org/2000/svg" xmlns:xlink="http://www.w3.org/1999/xlink"><g id="tight-bounds" transform="matrix(1,0,0,1,-0.00042100000007394556,0)"><svg viewBox="0 0 320 360" height="360" width="320"><g><svg></svg></g><g><svg viewBox="0 0 320 360" height="360" width="320"><g><path transform="translate(-9.31575,10.66434) scale(0.39811,0.39811)" d="M827.2 486c-0.2-21.2-13.6-38-13.8-59.2-0.1-21.2 13.1-46.8 12.9-68-6.7-20.1-24.7-31.9-31.4-52-6.7-20.1-2.1-48.6-8.7-68.7-12.6-17.1-33.4-22.7-45.9-39.7-12.6-17.1-17-45.6-29.5-62.6-17.2-12.3-38.7-11.3-56-23.6-17.2-12.3-30.2-38.1-47.5-50.4-20.2-6.4-40.3 1.3-60.5-5.2-20.2-6.4-40.5-26.9-60.7-33.3-21.2 0.2-38 13.6-59.2 13.8-21.2 0.1-46.8-13.1-68-12.9-20.1 6.7-31.9 24.7-52 31.4-20.1 6.7-48.6 2.1-68.7 8.8-17.1 12.6-22.7 33.4-39.7 45.9-17.1 12.6-45.6 17-62.6 29.6-12.3 17.2-11.3 38.7-23.6 56-12.3 17.2-38.1 30.2-50.4 47.5-6.4 20.2 1.2 40.3-5.2 60.5-6.4 20.2-26.9 40.5-33.3 60.7 0.1 21.2 13.6 38 13.8 59.2 0.1 21.2-13.1 46.8-12.9 68 6.7 20.1 24.7 31.9 31.4 52 6.7 20.1 2.1 48.6 8.8 68.7 12.6 17.1 33.4 22.7 45.9 39.8 12.6 17.1 17 45.6 29.5 62.6 17.2 12.3 38.7 11.3 56 23.6 17.2 12.3 30.2 38.1 47.5 50.4 20.2 6.4 40.3-1.2 60.5 5.2 20.2 6.4 40.5 26.9 60.7 33.3 21.2-0.2 38-13.6 59.2-13.8 21.2-0.1 46.8 13.1 68 12.9 20.1-6.7 31.9-24.7 52-31.4 20.1-6.7 48.6-2.1 68.7-8.8 17.1-12.6 22.7-33.4 39.8-45.9 17.1-12.6 45.6-17 62.6-29.5 12.3-17.2 11.3-38.7 23.6-56 12.3-17.2 38.1-30.2 50.4-47.5 6.4-20.2-1.2-40.3 5.2-60.5 6.2-20.4 26.7-40.7 33.1-60.9zM792 544.4c-9.1 17.9-31.4 33.8-40.6 51.7-9.1 17.9-5.1 37.9-14.2 55.8-14.2 14.2-40.3 22.4-54.6 36.6-14.2 14.2-16.5 34.5-30.8 48.7-17.9 9.1-45.3 8.8-63.2 18-17.9 9.1-26.4 27.7-44.3 36.8-19.9 3.1-45.8-5.6-65.7-2.5-19.9 3.1-33.7 18.2-53.5 21.3-19.9-3.1-41.8-19.5-61.7-22.6-19.9-3.2-37.6 6.9-57.5 3.7-17.9-9.1-33.8-31.5-51.7-40.6-17.9-9.1-37.9-5.1-55.9-14.2-14.2-14.2-22.4-40.3-36.6-54.6-14.2-14.2-34.5-16.6-48.7-30.8-9.1-17.9-8.8-45.3-18-63.2-9.1-17.9-27.7-26.4-36.8-44.3-3.1-19.9 5.6-45.8 2.5-65.7-3.2-19.9-18.2-33.7-21.3-53.5 3.2-19.9 19.5-41.8 22.6-61.7 3.1-19.9-6.9-37.6-3.7-57.5 9.1-17.9 31.5-33.8 40.6-51.7 9.1-17.9 5.1-37.9 14.2-55.9 14.2-14.2 40.3-22.4 54.6-36.6 14.2-14.2 16.6-34.5 30.8-48.7 17.9-9.1 45.3-8.8 63.2-18 17.9-9.1 26.4-27.7 44.3-36.8 19.9-3.1 45.8 5.6 65.7 2.5 19.9-3.1 33.7-18.2 53.5-21.3 19.9 3.1 41.8 19.5 61.7 22.6 19.9 3.2 37.6-6.9 57.5-3.7 17.9 9.1 33.8 31.5 51.7 40.6 17.9 9.1 37.9 5.1 55.9 14.2 14.2 14.2 22.4 40.3 36.6 54.6 14.2 14.2 34.5 16.6 48.7 30.8 9.1 17.9 8.8 45.3 18 63.2 9.1 17.9 27.7 26.4 36.8 44.3 3.2 19.9-5.6 45.8-2.5 65.7 3.1 19.9 18.2 33.7 21.3 53.5-3.1 19.9-19.5 41.8-22.6 61.7-3.1 19.9 6.9 37.7 3.7 57.6z" fill="#ffffff" fill-rule="nonzero" stroke="none" stroke-width="1" stroke-linecap="butt" stroke-linejoin="miter" stroke-miterlimit="10" stroke-dasharray="" stroke-dashoffset="0" font-family="none" font-weight="none" font-size="none" text-anchor="none" style="mix-blend-mode: normal" data-fill-palette-color="tertiary"></path></g><g transform="matrix(1,0,0,1,48,128.56761348367485)"><svg viewBox="0 0 224 102.86477303265028" height="102.86477303265028" width="224"><g><svg viewBox="0 0 224 102.86477303265028" height="102.86477303265028" width="224"><g><svg viewBox="0 0 224 102.86477303265028" height="102.86477303265028" width="224"><g transform="matrix(1,0,0,1,0,61.87181859786768)"><svg viewBox="0 0 224 40.992954434782604" height="40.992954434782604" width="224"><g id="textblocktransform"><svg viewBox="0 0 224 40.992954434782604" height="40.992954434782604" width="224" id="textblock"><g><svg viewBox="0 0 224 22.109640831758032" height="22.109640831758032" width="224"><g transform="matrix(1,0,0,1,0,0)"><svg width="224" viewBox="1.2 -35.65 370.27000000000004 36.55" height="22.109640831758032" data-palette-color="#ffffff"><path d="M15.75-35.65Q22.8-35.65 26.58-31 30.35-26.35 30.35-17.4L30.35-17.4Q30.35-8.55 26.55-3.83 22.75 0.9 15.75 0.9L15.75 0.9Q8.75 0.9 4.98-3.78 1.2-8.45 1.2-17.4L1.2-17.4Q1.2-26.2 4.98-30.93 8.75-35.65 15.75-35.65L15.75-35.65ZM15.75-29.15Q13.05-29.15 11.83-26.48 10.6-23.8 10.6-17.4L10.6-17.4Q10.6-10.95 11.83-8.28 13.05-5.6 15.75-5.6L15.75-5.6Q17.65-5.6 18.78-6.73 19.9-7.85 20.43-10.43 20.95-13 20.95-17.4L20.95-17.4Q20.95-23.8 19.73-26.48 18.5-29.15 15.75-29.15L15.75-29.15ZM33.8-34.75L54.2-34.75 53.25-28.35 42.85-28.35 42.85-20.75 52-20.75 52-14.5 42.85-14.5 42.85-6.45 53.95-6.45 53.95 0 33.8 0 33.8-34.75ZM68.5-35.65Q72.15-35.65 74.95-34.5 77.75-33.35 79.95-31.05L79.95-31.05 76-26.35Q72.8-29.15 69.45-29.15L69.45-29.15Q67.65-29.15 66.7-28.33 65.75-27.5 65.75-26.05L65.75-26.05Q65.75-25.05 66.25-24.38 66.75-23.7 67.95-23.08 69.15-22.45 71.5-21.55L71.5-21.55Q74.75-20.25 76.72-18.85 78.7-17.45 79.72-15.38 80.75-13.3 80.75-10.25L80.75-10.25Q80.75-6.95 79.17-4.42 77.59-1.9 74.65-0.5 71.7 0.9 67.65 0.9L67.65 0.9Q60 0.9 55.15-4.15L55.15-4.15 59.5-8.95Q61.4-7.35 63.22-6.5 65.05-5.65 67.09-5.65L67.09-5.65Q69.2-5.65 70.27-6.7 71.34-7.75 71.34-9.5L71.34-9.5Q71.34-11.25 70.25-12.3 69.15-13.35 66.2-14.45L66.2-14.45Q60.85-16.5 58.65-19 56.45-21.5 56.45-25.3L56.45-25.3Q56.45-28.4 58.02-30.75 59.6-33.1 62.35-34.38 65.09-35.65 68.5-35.65L68.5-35.65ZM81.79-34.75L106.59-34.75 105.64-27.9 98.49-27.9 98.49 0 89.44 0 89.44-27.9 81.79-27.9 81.79-34.75ZM108.64-34.75L129.04-34.75 128.09-28.35 117.69-28.35 117.69-20.75 126.84-20.75 126.84-14.5 117.69-14.5 117.69-6.45 128.79-6.45 128.79 0 108.64 0 108.64-34.75ZM155.94-35.65Q159.04-35.65 161.51-34.65 163.99-33.65 166.09-31.7L166.09-31.7 161.89-26.75Q160.54-27.85 159.26-28.45 157.99-29.05 156.54-29.05L156.54-29.05Q150.59-29.05 150.59-17.45L150.59-17.45Q150.59-11.45 152.14-8.7 153.69-5.95 156.59-5.95L156.59-5.95Q158.19-5.95 159.46-6.6 160.74-7.25 162.44-8.6L162.44-8.6 166.44-3.7Q164.54-1.65 161.86-0.38 159.19 0.9 155.94 0.9L155.94 0.9Q149.14 0.9 145.16-3.78 141.19-8.45 141.19-17.45L141.19-17.45Q141.19-23.3 143.06-27.4 144.94-31.5 148.26-33.58 151.59-35.65 155.94-35.65L155.94-35.65ZM194.78 0L185.43 0 184.08-7.2 176.18-7.2 174.83 0 165.63 0 174.83-34.75 185.63-34.75 194.78 0ZM180.13-28.25L177.38-13.6 182.88-13.6 180.13-28.25ZM226.73-34.75L229.03 0 220.28 0 220.03-13.1Q219.93-17.4 219.93-19.55L219.93-19.55Q219.93-23.7 220.13-27.05L220.13-27.05 216.23-3.6 207.73-3.6 203.58-27.05Q203.93-21.45 203.93-16.5L203.93-16.5Q203.93-14.25 203.88-13.05L203.88-13.05 203.58 0 194.98 0 197.23-34.75 208.38-34.75 212.13-11.6 215.48-34.75 226.73-34.75ZM232.33-34.75L241.38-34.75 241.38 0 232.33 0 232.33-34.75ZM256.93-35.65Q260.58-35.65 263.38-34.5 266.18-33.35 268.38-31.05L268.38-31.05 264.43-26.35Q261.23-29.15 257.88-29.15L257.88-29.15Q256.08-29.15 255.13-28.33 254.18-27.5 254.18-26.05L254.18-26.05Q254.18-25.05 254.68-24.38 255.18-23.7 256.38-23.08 257.58-22.45 259.93-21.55L259.93-21.55Q263.18-20.25 265.15-18.85 267.13-17.45 268.15-15.38 269.18-13.3 269.18-10.25L269.18-10.25Q269.18-6.95 267.6-4.42 266.03-1.9 263.08-0.5 260.13 0.9 256.08 0.9L256.08 0.9Q248.43 0.9 243.58-4.15L243.58-4.15 247.93-8.95Q249.83-7.35 251.65-6.5 253.48-5.65 255.53-5.65L255.53-5.65Q257.63-5.65 258.7-6.7 259.78-7.75 259.78-9.5L259.78-9.5Q259.78-11.25 258.68-12.3 257.58-13.35 254.63-14.45L254.63-14.45Q249.28-16.5 247.08-19 244.88-21.5 244.88-25.3L244.88-25.3Q244.88-28.4 246.45-30.75 248.03-33.1 250.78-34.38 253.53-35.65 256.93-35.65L256.93-35.65ZM272.22-34.75L292.62-34.75 291.67-28.35 281.27-28.35 281.27-20.75 290.42-20.75 290.42-14.5 281.27-14.5 281.27-6.45 292.37-6.45 292.37 0 272.22 0 272.22-34.75ZM293.82-34.75L318.62-34.75 317.67-27.9 310.52-27.9 310.52 0 301.47 0 301.47-27.9 293.82-27.9 293.82-34.75ZM346.72 0L337.37 0 336.02-7.2 328.12-7.2 326.77 0 317.57 0 326.77-34.75 337.57-34.75 346.72 0ZM332.07-28.25L329.32-13.6 334.82-13.6 332.07-28.25ZM359.22-35.65Q362.87-35.65 365.67-34.5 368.47-33.35 370.67-31.05L370.67-31.05 366.72-26.35Q363.52-29.15 360.17-29.15L360.17-29.15Q358.37-29.15 357.42-28.33 356.47-27.5 356.47-26.05L356.47-26.05Q356.47-25.05 356.97-24.38 357.47-23.7 358.67-23.08 359.87-22.45 362.22-21.55L362.22-21.55Q365.47-20.25 367.44-18.85 369.42-17.45 370.44-15.38 371.47-13.3 371.47-10.25L371.47-10.25Q371.47-6.95 369.89-4.42 368.32-1.9 365.37-0.5 362.42 0.9 358.37 0.9L358.37 0.9Q350.72 0.9 345.87-4.15L345.87-4.15 350.22-8.95Q352.12-7.35 353.94-6.5 355.77-5.65 357.82-5.65L357.82-5.65Q359.92-5.65 360.99-6.7 362.07-7.75 362.07-9.5L362.07-9.5Q362.07-11.25 360.97-12.3 359.87-13.35 356.92-14.45L356.92-14.45Q351.57-16.5 349.37-19 347.17-21.5 347.17-25.3L347.17-25.3Q347.17-28.4 348.74-30.75 350.32-33.1 353.07-34.38 355.82-35.65 359.22-35.65L359.22-35.65Z" opacity="1" transform="matrix(1,0,0,1,0,0)" fill="#ffffff" class="wordmark-text-0" data-fill-palette-color="primary" id="text-0"></path></svg></g></svg></g><g transform="matrix(1,0,0,1,0,27.329196400756143)"><svg viewBox="0 0 224 13.663758034026463" height="13.663758034026463" width="224"><g transform="matrix(1,0,0,1,0,0)"><svg width="224" viewBox="0 -40.3 677.88 41.349999999999994" height="13.663758034026463" data-palette-color="#ffffff"><path d="M43.15-38L38.6-34.4 24.2-1.6 19.7 0.95 5-34.4 0-37.55 0.9-39.3 15.4-39.3 15.4-38 10.9-34.3 23.2-4.7 36.35-34.7 27.35-37.55 28.2-39.3 43.2-39.3 43.15-38ZM86.36 0.9L83.86 0 54.16 0 54.16-1.3 58.86-5 58.86-35.75 53.71-37.55 54.56-39.3 83.36-39.3 85.86-40.2 85.86-28.95 84.61-28.6 78.71-37.35 64.51-37.35 64.51-21.05 72.76-21.05 76.41-27.6 77.71-27.6 77.71-12.3 75.96-11.4 72.86-19.1 64.51-19.1 64.51-1.95 78.51-1.95 85.11-11.75 86.36-11.35 86.36 0.9ZM124.96-9Q124.96-10.55 123.71-11.93 122.46-13.3 120.61-14.38 118.76-15.45 115.46-17.15L115.46-17.15Q111.61-19.1 109.29-20.5 106.96-21.9 105.34-23.83 103.71-25.75 103.71-28.1L103.71-28.1Q103.71-30.6 105.76-33.48 107.81-36.35 110.79-38.33 113.76-40.3 116.26-40.3L116.26-40.3Q119.31-40.3 123.34-39.55 127.36-38.8 129.21-37.95L129.21-37.95 129.21-28.5 127.86-28.5Q125.36-32.6 122.36-34.83 119.36-37.05 116.06-37.05L116.06-37.05Q113.01-37.05 111.26-35.18 109.51-33.3 109.51-30.3L109.51-30.3Q109.51-28.65 110.81-27.23 112.11-25.8 114.04-24.65 115.96-23.5 119.26-21.85L119.26-21.85Q123.01-19.95 125.29-18.57 127.56-17.2 129.14-15.33 130.71-13.45 130.71-11.15L130.71-11.15Q130.71-8.65 128.51-5.78 126.31-2.9 123.14-0.93 119.96 1.05 117.36 1.05L117.36 1.05Q114.16 1.05 109.76 0.3 105.36-0.45 103.46-1.3L103.46-1.3 103.46-10.75 104.81-10.75Q107.46-6.65 110.79-4.42 114.11-2.2 117.61-2.2L117.61-2.2Q119.81-2.2 121.49-3.15 123.16-4.1 124.06-5.68 124.96-7.25 124.96-9L124.96-9ZM180.02-40.2L180.02-27.95 178.77-27.6 172.17-37.35 165.77-37.35 165.77-3.6 170.97-1.75 170.07 0 155.37 0 155.37-1.3 160.07-5 160.07-37.35 153.87-37.35 147.27-27.6 146.02-27.95 146.02-40.2 148.52-39.3 177.52-39.3 180.02-40.2ZM210.27-1.65L209.42 0.1 194.72 0.1 194.72-1.2 199.42-4.85 199.42-35.65 194.27-37.5 195.12-39.25 209.82-39.25 209.82-37.95 205.07-34.3 205.07-3.6 210.27-1.65ZM267.68-40.3Q270.23-40.3 273.66-39.55 277.08-38.8 278.63-37.95L278.63-37.95 278.63-28.45 277.28-28.45Q272.58-36.4 264.78-36.4L264.78-36.4Q261.33-36.4 258.53-34.43 255.73-32.45 254.13-28.98 252.53-25.5 252.53-21.15L252.53-21.15Q252.53-16.15 254.08-11.98 255.63-7.8 258.86-5.3 262.08-2.8 266.83-2.8L266.83-2.8Q270.98-2.8 278.88-9.5L278.88-9.5 280.28-7.25 271.08-0.1Q269.28 0.55 267.61 0.78 265.93 1 264.03 1L264.03 1Q258.88 1 254.88-1.55 250.88-4.1 248.66-8.58 246.43-13.05 246.43-18.75L246.43-18.75Q246.43-24.6 249.78-29.58 253.13-34.55 258.13-37.43 263.13-40.3 267.68-40.3L267.68-40.3ZM316.29-40.3Q321.49-40.3 325.51-37.75 329.54-35.2 331.74-30.7 333.94-26.2 333.94-20.5L333.94-20.5Q333.94-14.65 330.59-9.7 327.24-4.75 322.26-1.88 317.29 1 312.74 1L312.74 1Q307.54 1 303.54-1.55 299.54-4.1 297.31-8.58 295.09-13.05 295.09-18.75L295.09-18.75Q295.09-24.6 298.44-29.58 301.79-34.55 306.76-37.43 311.74-40.3 316.29-40.3L316.29-40.3ZM313.39-36.4Q309.99-36.4 307.19-34.43 304.39-32.45 302.79-28.98 301.19-25.5 301.19-21.15L301.19-21.15Q301.19-16.15 302.76-12 304.34-7.85 307.59-5.38 310.84-2.9 315.64-2.9L315.64-2.9Q319.04-2.9 321.84-4.88 324.64-6.85 326.24-10.33 327.84-13.8 327.84-18.15L327.84-18.15Q327.84-23.2 326.26-27.33 324.69-31.45 321.44-33.93 318.19-36.4 313.39-36.4L313.39-36.4ZM386.64-38L381.89-34.35 381.89 0 379.49 0 355.64-30.7 355.64-4.4 360.54-1.75 359.64 0 348.54 0 348.54-1.3 353.24-4.95 353.24-34.8 348.09-37.55 348.94-39.3 356.24-39.3 379.49-9.35 379.49-34.9 374.64-37.55 375.54-39.3 386.64-39.3 386.64-38ZM440.35-19.05Q443.85-19.05 445.93-20.9 448-22.75 448-26L448-26Q448-30.7 445.6-33.73 443.2-36.75 438.6-36.75L438.6-36.75Q435.05-36.75 432.15-34.7L432.15-34.7 432.15-3.9 439.75-1.7 438.85 0.05 421.8 0.05 421.8-1.25 426.5-4.95 426.5-35.85 421.35-37.55 422.2-39.3 427.5-39.3Q432.45-39.3 437.25-39.6L437.25-39.6Q440.75-39.8 442.45-39.8L442.45-39.8Q445.9-39.8 448.55-38.33 451.2-36.85 452.68-34.27 454.15-31.7 454.15-28.55L454.15-28.55Q454.15-25.1 451.65-22.03 449.15-18.95 445.28-17.2 441.4-15.45 437.6-15.65L437.6-15.65 435.2-17.4 436.1-19.15 440.4-19.15 440.35-19.05ZM502.81-1.75L501.91 0 487.41 0 487.41-1.3 491.91-5 487.91-14.65 470.91-14.65 466.51-4.6 475.51-1.75 474.66 0 459.66 0 459.66-1.3 464.21-4.9 478.61-37.7 483.11-40.25 497.81-4.9 502.81-1.75ZM487.11-16.6L479.66-34.6 471.76-16.6 487.11-16.6ZM536.16-9Q536.16-10.55 534.91-11.93 533.66-13.3 531.81-14.38 529.96-15.45 526.66-17.15L526.66-17.15Q522.81-19.1 520.49-20.5 518.16-21.9 516.54-23.83 514.91-25.75 514.91-28.1L514.91-28.1Q514.91-30.6 516.96-33.48 519.01-36.35 521.99-38.33 524.96-40.3 527.46-40.3L527.46-40.3Q530.51-40.3 534.54-39.55 538.56-38.8 540.41-37.95L540.41-37.95 540.41-28.5 539.06-28.5Q536.56-32.6 533.56-34.83 530.56-37.05 527.26-37.05L527.26-37.05Q524.21-37.05 522.46-35.18 520.71-33.3 520.71-30.3L520.71-30.3Q520.71-28.65 522.01-27.23 523.31-25.8 525.24-24.65 527.16-23.5 530.46-21.85L530.46-21.85Q534.21-19.95 536.49-18.57 538.76-17.2 540.34-15.33 541.91-13.45 541.91-11.15L541.91-11.15Q541.91-8.65 539.71-5.78 537.51-2.9 534.34-0.93 531.16 1.05 528.56 1.05L528.56 1.05Q525.36 1.05 520.96 0.3 516.56-0.45 514.66-1.3L514.66-1.3 514.66-10.75 516.01-10.75Q518.66-6.65 521.99-4.42 525.31-2.2 528.81-2.2L528.81-2.2Q531.01-2.2 532.69-3.15 534.36-4.1 535.26-5.68 536.16-7.25 536.16-9L536.16-9ZM572.17-1.65L571.32 0.1 556.62 0.1 556.62-1.2 561.32-4.85 561.32-35.65 556.17-37.5 557.02-39.25 571.72-39.25 571.72-37.95 566.97-34.3 566.97-3.6 572.17-1.65ZM607.53-40.3Q612.73-40.3 616.75-37.75 620.78-35.2 622.98-30.7 625.18-26.2 625.18-20.5L625.18-20.5Q625.18-14.65 621.83-9.7 618.48-4.75 613.5-1.88 608.53 1 603.98 1L603.98 1Q598.78 1 594.78-1.55 590.78-4.1 588.55-8.58 586.33-13.05 586.33-18.75L586.33-18.75Q586.33-24.6 589.68-29.58 593.03-34.55 598-37.43 602.98-40.3 607.53-40.3L607.53-40.3ZM604.63-36.4Q601.23-36.4 598.43-34.43 595.63-32.45 594.03-28.98 592.43-25.5 592.43-21.15L592.43-21.15Q592.43-16.15 594-12 595.58-7.85 598.83-5.38 602.08-2.9 606.88-2.9L606.88-2.9Q610.28-2.9 613.08-4.88 615.88-6.85 617.48-10.33 619.08-13.8 619.08-18.15L619.08-18.15Q619.08-23.2 617.5-27.33 615.93-31.45 612.68-33.93 609.43-36.4 604.63-36.4L604.63-36.4ZM677.88-38L673.13-34.35 673.13 0 670.73 0 646.88-30.7 646.88-4.4 651.78-1.75 650.88 0 639.78 0 639.78-1.3 644.48-4.95 644.48-34.8 639.33-37.55 640.18-39.3 647.48-39.3 670.73-9.35 670.73-34.9 665.88-37.55 666.78-39.3 677.88-39.3 677.88-38Z" opacity="1" transform="matrix(1,0,0,1,0,0)" fill="#ffffff" class="slogan-text-1" data-fill-palette-color="secondary" id="text-1"></path></svg></g></svg></g></svg></g></svg></g><g transform="matrix(1,0,0,1,83.61078133297181,0)"><svg viewBox="0 0 56.77843733405636 56.65226302886957" height="56.65226302886957" width="56.77843733405636"><g><svg xmlns="http://www.w3.org/2000/svg" xmlns:xlink="http://www.w3.org/1999/xlink" version="1.1" x="0" y="0" viewBox="5 5.1 90 89.8" enable-background="new 0 0 100 100" xml:space="preserve" height="56.65226302886957" width="56.77843733405636" class="icon-icon-0" data-fill-palette-color="accent" id="icon-0"><g fill="#fe6152" data-fill-palette-color="accent"><path fill="#fe6152" d="M43.1 49.6c-11.6-1.5-24.9-3.2-28.4-3.4-1.4 3.1-6.2 14.3-6.1 21.4 5.2 12.3 16 21.9 28.8 25.6 7.7-4 16.6-12.7 19.1-15.2C52.5 71.4 44.9 53.9 43.1 49.6z" data-fill-palette-color="accent"></path><path fill="#fe6152" d="M41.4 94.1c2.9 0.6 5.7 0.8 8.6 0.8 16.7 0 31.9-9.2 39.7-23.9-12.3 7.7-27.3 8.5-30.9 8.6C56.9 81.6 49.1 89.3 41.4 94.1z" data-fill-palette-color="accent"></path><path fill="#fe6152" d="M43 46.7c2.6-7 16.8-21.8 20.5-25.6C57.2 9.6 49 5.8 47.1 5.1c-13 0.8-24.9 7.3-32.9 17.7-0.7 4.8 0 17.4 0.5 20.6C18.8 43.6 32.1 45.3 43 46.7z" data-fill-palette-color="accent"></path><path fill="#fe6152" d="M11.1 27.4C7.1 34.2 5 42 5 49.9c0 3.8 0.5 7.6 1.4 11.3 1.5-7 4.8-14.5 5.7-16.6C11.4 41.9 11 33.3 11.1 27.4z" data-fill-palette-color="accent"></path><path fill="#fe6152" d="M65.7 22.9c-7.6 7.7-18.9 20.5-20.2 25.2 1.3 3 9.6 22.2 13.5 28.6 3.7-0.1 18.1-1.1 29.5-8.3 0.5-3.1 3.4-21.2 0-31C87.1 35.7 77.2 25.2 65.7 22.9z" data-fill-palette-color="accent"></path><path fill="#fe6152" d="M95 49.9c0-5.6-1-11-3-16.1l-0.7 2.7c3.1 9.2 1.3 24.1 0.4 30.3C93.9 61.4 95 55.8 95 49.9z" data-fill-palette-color="accent"></path><path fill="#fe6152" d="M66.2 20.1c10.3 2.1 18.9 9.7 22.9 13.7l1-4.1c-7.2-14.2-21.2-23.4-37-24.5C57.1 7.7 62 12.3 66.2 20.1z" data-fill-palette-color="accent"></path></g></svg></g></svg></g><g></g></svg></g></svg></g></svg></g></svg></g><defs></defs></svg><rect width="320" height="360" fill="none" stroke="none" visibility="hidden"></rect></g></svg></g></svg>